<?xml version="1.0" encoding="UTF-8" standalone="no"?>
<svg
   width="510"
   height="146"
   viewBox="0 0 510 146"
   fill="none"
   version="1.1"
   id="svg18"
   sodipodi:docname="logo_name.svg"
   inkscape:version="1.2.2 (b0a8486541, 2022-12-01)"
   xmlns:inkscape="http://www.inkscape.org/namespaces/inkscape"
   xmlns:sodipodi="http://sodipodi.sourceforge.net/DTD/sodipodi-0.dtd"
   xmlns="http://www.w3.org/2000/svg"
   xmlns:svg="http://www.w3.org/2000/svg">
  <defs
     id="defs22" />
  <sodipodi:namedview
     id="namedview20"
     pagecolor="#ffffff"
     bordercolor="#000000"
     borderopacity="0.25"
     inkscape:showpageshadow="2"
     inkscape:pageopacity="0.0"
     inkscape:pagecheckerboard="0"
     inkscape:deskcolor="#d1d1d1"
     showgrid="false"
     inkscape:zoom="2.0973725"
     inkscape:cx="245.78371"
     inkscape:cy="72.471629"
     inkscape:window-width="1920"
     inkscape:window-height="1043"
     inkscape:window-x="0"
     inkscape:window-y="0"
     inkscape:window-maximized="1"
     inkscape:current-layer="svg18" />
  <path
     d="M 0.847656,64.5469 1.06343,80.7897 C 14.5338,79.9556 34.7392,76.3412 64.6082,66.537 c -30.5933,1.2438 -50.6447,0 -63.760544,-1.9901 z"
     fill="#3dafc2"
     id="path2" />
  <path
     d="m 1.37166,104.729 c 0,0 2.78962,9.073 36.18804,14.063 29.6994,4.434 45.05,26.208 45.05,26.208 L 81.7775,66.5955 C 42.1525,80.7165 16.9535,86.2771 1.15588,88.0769 Z"
     fill="#3dafc2"
     id="path4" />
  <path
     d="M 81.7159,60.0398 81.5309,43.0946 C 81.1148,13.1698 42.1372,9.16028 23.1338,7.91647 5.88749,6.80434 0,0.39502 0,0.39502 L 0.755201,57.0839 C 16.3987,60.4349 41.5823,62.6591 81.7159,60.0398 Z"
     fill="#3dafc2"
     id="path6" />
  <path
     d="m 104.988,58.8254 c 31.719,-0.8779 52.418,2.3121 65.842,6.4386 l 0.123,-15.994 c -13.748,-1.3463 -34.724,0.1463 -65.965,9.5554 z"
     fill="#f7bc33"
     id="path8" />
  <path
     d="M 171.015,42.1289 171.354,0 c 0,0 -5.857,6.43859 -23.088,7.63851 C 129.263,8.97013 90.3159,13.1552 90.0385,43.08 L 89.9614,57.6839 C 129.71,43.8556 155.171,41.1192 171.015,42.1289 Z"
     fill="#3dafc2"
     id="path10" />
  <path
     d="m 89.9152,65.1469 -0.4469,79.8381 c 0,0 15.2427,-21.832 44.9267,-26.412 33.383,-5.137 36.111,-14.224 36.111,-14.224 l 0.262,-31.7246 c -15.489,-5.502 -40.581,-9.7457 -80.8528,-7.4775 z"
     fill="#3dafc2"
     id="path12" />
  <path
     d="m 211.273,106.309 h -4.558 v -1.84 h 4.558 c 0.883,0 1.598,-0.141 2.145,-0.422 0.547,-0.281 0.945,-0.672 1.195,-1.172 0.258,-0.5 0.387,-1.07 0.387,-1.711 0,-0.586 -0.129,-1.137 -0.387,-1.6523 -0.25,-0.5156 -0.648,-0.9297 -1.195,-1.2422 -0.547,-0.3203 -1.262,-0.4804 -2.145,-0.4804 h -4.031 V 113 H 204.98 V 95.9375 h 6.293 c 1.289,0 2.379,0.2227 3.27,0.668 0.891,0.4453 1.566,1.0625 2.027,1.8515 0.461,0.7813 0.692,1.676 0.692,2.684 0,1.093 -0.231,2.027 -0.692,2.8 -0.461,0.774 -1.136,1.364 -2.027,1.77 -0.891,0.398 -1.981,0.598 -3.27,0.598 z m 25.61,-10.3715 h 2.25 V 107.48 c 0,1.282 -0.285,2.348 -0.856,3.2 -0.57,0.851 -1.328,1.492 -2.273,1.922 -0.938,0.421 -1.957,0.632 -3.059,0.632 -1.156,0 -2.203,-0.211 -3.14,-0.632 -0.93,-0.43 -1.668,-1.071 -2.215,-1.922 -0.539,-0.852 -0.809,-1.918 -0.809,-3.2 V 95.9375 h 2.239 V 107.48 c 0,0.891 0.164,1.625 0.492,2.204 0.328,0.578 0.785,1.007 1.371,1.289 0.594,0.281 1.281,0.422 2.062,0.422 0.789,0 1.477,-0.141 2.063,-0.422 0.594,-0.282 1.054,-0.711 1.383,-1.289 0.328,-0.579 0.492,-1.313 0.492,-2.204 z m 18.883,9.0825 h -4.325 l -0.023,-1.817 h 3.926 c 0.648,0 1.215,-0.109 1.699,-0.328 0.484,-0.219 0.859,-0.531 1.125,-0.937 0.273,-0.415 0.41,-0.907 0.41,-1.477 0,-0.6251 -0.121,-1.1329 -0.363,-1.5235 -0.235,-0.3984 -0.598,-0.6875 -1.09,-0.8672 -0.484,-0.1875 -1.102,-0.2812 -1.852,-0.2812 h -3.328 V 113 h -2.261 V 95.9375 h 5.589 c 0.875,0 1.657,0.0898 2.344,0.2695 0.688,0.1719 1.27,0.4453 1.746,0.8203 0.485,0.3672 0.852,0.836 1.102,1.4063 0.25,0.5703 0.375,1.2539 0.375,2.0504 0,0.704 -0.18,1.34 -0.539,1.911 -0.36,0.562 -0.86,1.023 -1.5,1.382 -0.633,0.36 -1.375,0.59 -2.227,0.692 z M 255.66,113 h -5.109 l 1.277,-1.84 h 3.832 c 0.719,0 1.328,-0.125 1.828,-0.375 0.508,-0.25 0.895,-0.601 1.16,-1.055 0.266,-0.46 0.399,-1.003 0.399,-1.628 0,-0.633 -0.113,-1.18 -0.34,-1.641 -0.227,-0.461 -0.582,-0.816 -1.066,-1.066 -0.485,-0.25 -1.11,-0.375 -1.875,-0.375 h -3.223 l 0.023,-1.817 h 4.407 l 0.48,0.656 c 0.82,0.071 1.516,0.305 2.086,0.703 0.57,0.391 1.004,0.891 1.301,1.5 0.305,0.61 0.457,1.282 0.457,2.016 0,1.063 -0.235,1.961 -0.703,2.695 -0.461,0.727 -1.114,1.282 -1.957,1.665 -0.844,0.374 -1.836,0.562 -2.977,0.562 z m 26.324,-1.84 V 113 h -8.531 v -1.84 z M 273.898,95.9375 V 113 h -2.261 V 95.9375 Z m 20.102,0 V 113 h -2.262 V 95.9375 Z m 21.414,11.6365 h 2.25 c -0.117,1.078 -0.426,2.043 -0.926,2.895 -0.5,0.851 -1.207,1.527 -2.121,2.027 -0.914,0.492 -2.055,0.738 -3.422,0.738 -1,0 -1.91,-0.187 -2.73,-0.562 -0.813,-0.375 -1.512,-0.906 -2.098,-1.594 -0.586,-0.695 -1.039,-1.527 -1.359,-2.496 -0.313,-0.977 -0.469,-2.062 -0.469,-3.258 v -1.699 c 0,-1.195 0.156,-2.277 0.469,-3.246 0.32,-0.9767 0.777,-1.8126 1.371,-2.5079 0.601,-0.6953 1.324,-1.2305 2.168,-1.6055 0.844,-0.375 1.793,-0.5625 2.848,-0.5625 1.289,0 2.378,0.2422 3.269,0.7266 0.891,0.4844 1.582,1.1562 2.074,2.0156 0.5,0.8516 0.809,1.8397 0.926,2.9647 h -2.25 c -0.109,-0.797 -0.312,-1.4803 -0.609,-2.0506 -0.297,-0.5782 -0.719,-1.0235 -1.266,-1.336 -0.547,-0.3125 -1.262,-0.4687 -2.144,-0.4687 -0.758,0 -1.426,0.1445 -2.004,0.4336 -0.571,0.289 -1.051,0.6992 -1.442,1.2305 -0.383,0.5312 -0.672,1.1682 -0.867,1.9102 -0.195,0.742 -0.293,1.566 -0.293,2.473 v 1.722 c 0,0.836 0.086,1.621 0.258,2.356 0.18,0.734 0.449,1.379 0.808,1.933 0.36,0.555 0.817,0.992 1.372,1.313 0.554,0.312 1.211,0.469 1.968,0.469 0.961,0 1.727,-0.153 2.297,-0.457 0.57,-0.305 1,-0.743 1.289,-1.313 0.297,-0.57 0.508,-1.254 0.633,-2.051 z m 35.633,3.586 V 113 h -8.531 v -1.84 z M 342.961,95.9375 V 113 h -2.262 V 95.9375 Z m 20.101,0 V 113 h -2.261 V 95.9375 Z m 17.196,9.0825 h -4.324 l -0.024,-1.817 h 3.926 c 0.648,0 1.215,-0.109 1.699,-0.328 0.485,-0.219 0.86,-0.531 1.125,-0.937 0.274,-0.415 0.41,-0.907 0.41,-1.477 0,-0.6251 -0.121,-1.1329 -0.363,-1.5235 -0.234,-0.3984 -0.598,-0.6875 -1.09,-0.8672 -0.484,-0.1875 -1.101,-0.2812 -1.851,-0.2812 h -3.328 V 113 h -2.262 V 95.9375 h 5.59 c 0.875,0 1.656,0.0898 2.343,0.2695 0.688,0.1719 1.27,0.4453 1.746,0.8203 0.485,0.3672 0.852,0.836 1.102,1.4063 0.25,0.5703 0.375,1.2539 0.375,2.0504 0,0.704 -0.18,1.34 -0.539,1.911 -0.359,0.562 -0.859,1.023 -1.5,1.382 -0.633,0.36 -1.375,0.59 -2.227,0.692 z m -0.106,7.98 h -5.109 l 1.277,-1.84 h 3.832 c 0.719,0 1.328,-0.125 1.828,-0.375 0.508,-0.25 0.895,-0.601 1.161,-1.055 0.265,-0.46 0.398,-1.003 0.398,-1.628 0,-0.633 -0.113,-1.18 -0.34,-1.641 -0.226,-0.461 -0.582,-0.816 -1.066,-1.066 -0.485,-0.25 -1.11,-0.375 -1.875,-0.375 h -3.223 l 0.024,-1.817 h 4.406 l 0.48,0.656 c 0.821,0.071 1.516,0.305 2.086,0.703 0.571,0.391 1.004,0.891 1.301,1.5 0.305,0.61 0.457,1.282 0.457,2.016 0,1.063 -0.234,1.961 -0.703,2.695 -0.461,0.727 -1.113,1.282 -1.957,1.665 -0.844,0.374 -1.836,0.562 -2.977,0.562 z m 15.977,-17.0625 h 5.648 c 1.282,0 2.364,0.1953 3.246,0.5859 0.891,0.3907 1.567,0.9688 2.028,1.7344 0.469,0.7578 0.703,1.6914 0.703,2.8012 0,0.781 -0.16,1.496 -0.481,2.144 -0.312,0.641 -0.765,1.188 -1.359,1.641 -0.586,0.445 -1.289,0.777 -2.109,0.996 l -0.633,0.246 h -5.309 l -0.023,-1.84 h 4.008 c 0.812,0 1.488,-0.141 2.027,-0.422 0.539,-0.289 0.945,-0.676 1.219,-1.16 0.273,-0.484 0.41,-1.019 0.41,-1.605 0,-0.657 -0.129,-1.2309 -0.387,-1.7231 -0.258,-0.4921 -0.664,-0.8711 -1.219,-1.1367 -0.546,-0.2734 -1.253,-0.4101 -2.121,-0.4101 h -3.386 V 113 h -2.262 z m 9.973,17.0625 -4.149,-7.734 2.356,-0.012 4.207,7.605 V 113 Z M 424.234,97.4492 418.586,113 h -2.309 l 6.504,-17.0625 h 1.489 z m 4.735,15.5508 -5.66,-15.5508 -0.036,-1.5117 h 1.489 L 431.289,113 Z m -0.293,-6.316 v 1.851 h -9.586 v -1.851 z m 11.898,-10.7465 h 5.649 c 1.281,0 2.363,0.1953 3.246,0.5859 0.89,0.3907 1.566,0.9688 2.027,1.7344 0.469,0.7578 0.703,1.6914 0.703,2.8012 0,0.781 -0.16,1.496 -0.48,2.144 -0.313,0.641 -0.766,1.188 -1.36,1.641 -0.586,0.445 -1.289,0.777 -2.109,0.996 l -0.633,0.246 h -5.308 l -0.024,-1.84 h 4.008 c 0.812,0 1.488,-0.141 2.027,-0.422 0.539,-0.289 0.946,-0.676 1.219,-1.16 0.273,-0.484 0.41,-1.019 0.41,-1.605 0,-0.657 -0.129,-1.2309 -0.387,-1.7231 -0.257,-0.4921 -0.664,-0.8711 -1.218,-1.1367 -0.547,-0.2734 -1.254,-0.4101 -2.121,-0.4101 h -3.387 V 113 h -2.262 z m 9.973,17.0625 -4.149,-7.734 2.356,-0.012 4.207,7.605 V 113 Z M 464.789,95.9375 V 113 h -2.262 V 95.9375 Z M 486.742,111.16 V 113 h -9.035 v -1.84 z M 478.164,95.9375 V 113 h -2.262 V 95.9375 Z m 7.383,7.3355 v 1.84 h -7.84 v -1.84 z m 1.078,-7.3355 v 1.8516 h -8.918 v -1.8516 z m 19.012,12.7505 c 0,-0.399 -0.063,-0.75 -0.188,-1.055 -0.117,-0.313 -0.328,-0.594 -0.633,-0.844 -0.296,-0.25 -0.711,-0.488 -1.242,-0.715 -0.523,-0.226 -1.187,-0.457 -1.992,-0.691 -0.844,-0.25 -1.605,-0.528 -2.285,-0.832 -0.68,-0.313 -1.262,-0.668 -1.746,-1.067 -0.485,-0.398 -0.856,-0.855 -1.113,-1.371 -0.258,-0.515 -0.387,-1.105 -0.387,-1.769 0,-0.6643 0.137,-1.2776 0.41,-1.8401 0.273,-0.5625 0.664,-1.0508 1.172,-1.4648 0.515,-0.4219 1.129,-0.75 1.84,-0.9844 0.711,-0.2344 1.504,-0.3516 2.379,-0.3516 1.281,0 2.367,0.2461 3.257,0.7383 0.899,0.4844 1.582,1.1211 2.051,1.9102 0.469,0.7812 0.703,1.6172 0.703,2.5074 h -2.25 c 0,-0.64 -0.136,-1.2067 -0.41,-1.6988 -0.273,-0.5 -0.687,-0.8907 -1.242,-1.1719 -0.555,-0.2891 -1.258,-0.4336 -2.109,-0.4336 -0.805,0 -1.469,0.1211 -1.993,0.3633 -0.523,0.2422 -0.914,0.5703 -1.171,0.9843 -0.25,0.4141 -0.376,0.8868 -0.376,1.4177 0,0.36 0.075,0.688 0.223,0.985 0.156,0.289 0.395,0.558 0.715,0.808 0.328,0.25 0.742,0.481 1.242,0.692 0.508,0.211 1.113,0.414 1.817,0.609 0.968,0.274 1.804,0.578 2.507,0.914 0.704,0.336 1.282,0.715 1.735,1.137 0.461,0.414 0.801,0.887 1.019,1.418 0.227,0.523 0.34,1.117 0.34,1.781 0,0.695 -0.14,1.324 -0.422,1.887 -0.281,0.562 -0.683,1.043 -1.207,1.441 -0.523,0.399 -1.152,0.707 -1.886,0.926 -0.727,0.211 -1.54,0.316 -2.438,0.316 -0.789,0 -1.566,-0.109 -2.332,-0.328 -0.758,-0.218 -1.449,-0.547 -2.074,-0.984 -0.617,-0.438 -1.113,-0.977 -1.489,-1.617 -0.367,-0.649 -0.55,-1.399 -0.55,-2.25 h 2.25 c 0,0.586 0.113,1.09 0.34,1.511 0.226,0.414 0.535,0.758 0.925,1.032 0.399,0.273 0.848,0.476 1.348,0.609 0.508,0.125 1.035,0.188 1.582,0.188 0.789,0 1.457,-0.11 2.004,-0.329 0.547,-0.218 0.961,-0.531 1.242,-0.937 0.289,-0.406 0.434,-0.887 0.434,-1.441 z"
     fill="#384b88"
     id="path14"
     style="fill:#ececec" />
  <path
     d="M 229.125,65.7812 V 72 H 206.281 V 65.7812 Z M 208.469,26.5 V 72 h -7.844 V 26.5 Z m 60.5,39.2812 V 72 H 244.812 V 65.7812 Z M 247.031,26.5 V 72 h -7.843 V 26.5 Z m 18.781,19 v 6.125 h -21 V 45.5 Z m 3,-19 v 6.25 h -24 V 26.5 Z m 27.626,24.9375 h -11.594 l -0.063,-5.7187 h 10.125 c 1.709,0 3.156,-0.25 4.344,-0.75 1.208,-0.5209 2.125,-1.2605 2.75,-2.2188 0.625,-0.9792 0.938,-2.1562 0.938,-3.5312 0,-1.5209 -0.292,-2.7605 -0.876,-3.7188 -0.583,-0.9583 -1.479,-1.6562 -2.687,-2.0938 -1.187,-0.4374 -2.708,-0.6562 -4.563,-0.6562 h -7.593 V 72 h -7.844 V 26.5 h 15.437 c 2.5,0 4.73,0.2396 6.688,0.7188 1.979,0.4791 3.656,1.2291 5.031,2.25 1.396,1 2.448,2.2708 3.157,3.8124 0.729,1.5417 1.093,3.375 1.093,5.5 0,1.875 -0.448,3.5938 -1.343,5.1563 -0.896,1.5417 -2.219,2.8021 -3.969,3.7813 -1.75,0.9791 -3.927,1.5624 -6.531,1.75 z M 296.094,72 h -13.719 l 3.531,-6.2188 h 10.188 c 1.771,0 3.25,-0.2916 4.437,-0.875 1.188,-0.6041 2.073,-1.427 2.657,-2.4687 0.604,-1.0625 0.906,-2.3021 0.906,-3.7187 0,-1.4792 -0.261,-2.7605 -0.782,-3.8438 -0.52,-1.1042 -1.343,-1.9479 -2.468,-2.5312 -1.125,-0.6042 -2.594,-0.9063 -4.406,-0.9063 h -8.813 l 0.063,-5.7187 h 11.468 l 1.782,2.1562 c 2.5,0.0833 4.552,0.6354 6.156,1.6562 1.625,1.0209 2.833,2.3438 3.625,3.9688 0.791,1.625 1.187,3.375 1.187,5.25 0,2.8958 -0.635,5.3229 -1.906,7.2812 -1.25,1.9584 -3.052,3.448 -5.406,4.4688 -2.354,1 -5.188,1.5 -8.5,1.5 z M 341.531,32.5625 327.938,72 h -8.219 l 17.125,-45.5 h 5.25 z M 352.906,72 339.281,32.5625 338.688,26.5 h 5.281 L 361.156,72 Z M 352.25,55.125 v 6.2188 H 327.5 V 55.125 Z M 406.344,26.5 V 72 H 398.5 L 378.094,39.4062 V 72 H 370.25 V 26.5 h 7.844 l 20.468,32.6562 V 26.5 Z M 455.969,48 v 2.5 c 0,3.4375 -0.448,6.5208 -1.344,9.25 -0.896,2.7292 -2.177,5.0521 -3.844,6.9688 -1.646,1.9166 -3.625,3.3854 -5.937,4.4062 -2.313,1 -4.875,1.5 -7.688,1.5 -2.791,0 -5.344,-0.5 -7.656,-1.5 -2.292,-1.0208 -4.281,-2.4896 -5.969,-4.4062 -1.687,-1.9167 -3,-4.2396 -3.937,-6.9688 -0.917,-2.7292 -1.375,-5.8125 -1.375,-9.25 V 48 c 0,-3.4375 0.458,-6.5104 1.375,-9.2188 0.916,-2.7291 2.208,-5.052 3.875,-6.9687 1.687,-1.9375 3.677,-3.4063 5.969,-4.4063 2.312,-1.0208 4.864,-1.5312 7.656,-1.5312 2.812,0 5.375,0.5104 7.687,1.5312 2.313,1 4.302,2.4688 5.969,4.4063 1.667,1.9167 2.948,4.2396 3.844,6.9687 0.916,2.7084 1.375,5.7813 1.375,9.2188 z m -7.844,2.5 v -2.5625 c 0,-2.5417 -0.25,-4.7813 -0.75,-6.7187 -0.479,-1.9584 -1.198,-3.5938 -2.156,-4.9063 -0.938,-1.3333 -2.094,-2.3333 -3.469,-3 -1.375,-0.6875 -2.927,-1.0313 -4.656,-1.0313 -1.729,0 -3.271,0.3438 -4.625,1.0313 -1.354,0.6667 -2.511,1.6667 -3.469,3 -0.938,1.3125 -1.656,2.9479 -2.156,4.9063 -0.5,1.9374 -0.75,4.177 -0.75,6.7187 V 50.5 c 0,2.5417 0.25,4.7917 0.75,6.75 0.5,1.9583 1.229,3.6146 2.187,4.9688 0.979,1.3333 2.146,2.3437 3.5,3.0312 1.354,0.6667 2.896,1 4.625,1 1.75,0 3.302,-0.3333 4.656,-1 1.355,-0.6875 2.5,-1.6979 3.438,-3.0312 0.938,-1.3542 1.646,-3.0105 2.125,-4.9688 0.5,-1.9583 0.75,-4.2083 0.75,-6.75 z m 55.781,-24 V 72 h -7.844 L 475.656,39.4062 V 72 h -7.844 V 26.5 h 7.844 l 20.469,32.6562 V 26.5 Z"
     fill="#384b88"
     id="path16"
     style="fill:#ececec" />
</svg>
